# xmcd CD database file
#
# Track frame offsets:
#	150
#	12061
#	25268
#	37574
#	50581
#	62335
#	75493
#	87086
#	97001
#	109537
#	121803
#	132888
#	143725
#	156831
#	169013
#	181287
#	192076
#	203821
#
# Disc length: 2874 seconds
#
# Revision: 0
# Processed by: cddbd v1.5.2PL0 Copyright (c) Steve Scherf et al.
# Submitted via: CDex 1.51
#
DISCID=d40b3812
DTITLE=Hank Willaims - The Collection
DYEAR=2007
DGENRE=Country
TTITLE0=Take These Chains From My Heart
TTITLE1=Mind Your Own Business
TTITLE2=Cold Cold Heart
TTITLE3=Jambalaya (On The Bayou)
TTITLE4=You Win Again
TTITLE5=Wedding Bells
TTITLE6=Kaw-Liga
TTITLE7=Honky Tonk Blues
TTITLE8=I'm So Lonesome I Could Cry
TTITLE9=Lovesick Blues
TTITLE10=Crazy Heart
TTITLE11=I Can't Help It(If I'm Still In Love With You)
TTITLE12=Hey, Good Luckin'
TTITLE13=Your Cheatin' Heart
TTITLE14=Half As Much
TTITLE15=Why Don't You Love Me?
TTITLE16=Settin' The Woods On Fire
TTITLE17=Long Gone Lonesome Blues
EXTD=YEAR: 2007
EXTT0=
EXTT1=
EXTT2=
EXTT3=
EXTT4=
EXTT5=
EXTT6=
EXTT7=
EXTT8=
EXTT9=
EXTT10=
EXTT11=
EXTT12=
EXTT13=
EXTT14=
EXTT15=
EXTT16=
EXTT17=
PLAYORDER=
